<?xml version="1.0" encoding="iso-8859-1"?>
<!-- Generator: Adobe Illustrator 16.0.0, SVG Export Plug-In . SVG Version: 6.00 Build 0)  -->
<!DOCTYPE svg PUBLIC "-//W3C//DTD SVG 1.1//EN" "http://www.w3.org/Graphics/SVG/1.1/DTD/svg11.dtd">
<svg version="1.1" id="Layer_1" xmlns="http://www.w3.org/2000/svg" xmlns:xlink="http://www.w3.org/1999/xlink" x="0px" y="0px"
	 viewBox="0 0 1244 716" style="enable-background:new 0 0 1244 716;" xml:space="preserve">
<g>
	<circle style="fill:#FFFFFF;stroke:#D8D8D8;stroke-width:5;" cx="848.5" cy="123.5" r="84"/>
	<path style="fill:#893E8B;" d="M821.916,123.467c6.415,0,12.832-2.443,17.716-7.327c7.457-7.457,9.446-18.872,4.951-28.405
		c-0.461-0.978-1.627-1.397-2.605-0.936c-0.978,0.461-1.396,1.627-0.936,2.605c3.793,8.044,2.114,17.676-4.178,23.967
		c-8.243,8.243-21.654,8.243-29.896,0c-8.243-8.242-8.243-21.654,0-29.896c6.25-6.251,15.835-7.952,23.85-4.233
		c0.981,0.456,2.145,0.029,2.6-0.952s0.028-2.145-0.952-2.599c-9.499-4.408-20.858-2.392-28.266,5.016
		c-9.769,9.769-9.769,25.664,0,35.433C809.084,121.025,815.499,123.468,821.916,123.467z"/>
	<path style="fill:#893E8B;" d="M836.902,100.4h1.422c1.08,0,1.957-0.876,1.957-1.958c0-1.081-0.877-1.958-1.957-1.958h-1.422
		c-1.081,0-1.958,0.877-1.958,1.958C834.944,99.524,835.821,100.4,836.902,100.4z"/>
	<path style="fill:#893E8B;" d="M805.508,96.448c-1.081,0-1.958,0.876-1.958,1.957s0.877,1.958,1.958,1.958h1.422
		c1.081,0,1.957-0.876,1.957-1.958s-0.876-1.957-1.957-1.957H805.508z"/>
	<path style="fill:#893E8B;" d="M819.939,113.411v1.422c0,1.081,0.877,1.958,1.958,1.958c1.08,0,1.957-0.877,1.957-1.958v-1.422
		c0-1.081-0.877-1.958-1.957-1.958C820.816,111.453,819.939,112.33,819.939,113.411z"/>
	<path style="fill:#893E8B;" d="M823.892,83.505c0.002-1.081-0.874-1.958-1.954-1.96c-0.002,0-0.002,0-0.003,0
		c-1.08,0-1.956,0.875-1.958,1.955l-0.018,13.936l-5.659,4.184c-0.87,0.643-1.054,1.868-0.411,2.738
		c0.384,0.519,0.976,0.794,1.576,0.794c0.403,0,0.812-0.125,1.162-0.383l6.452-4.77c0.499-0.369,0.793-0.951,0.794-1.571
		L823.892,83.505z"/>
	<path style="fill:#893E8B;" d="M838.248,84.049c0.516,0,1.021-0.209,1.384-0.573c0.364-0.364,0.574-0.869,0.574-1.384
		c0-0.515-0.21-1.02-0.574-1.383c-0.363-0.364-0.868-0.574-1.384-0.574c-0.515,0-1.02,0.21-1.384,0.574
		c-0.363,0.364-0.573,0.869-0.573,1.383c0,0.515,0.209,1.02,0.573,1.384C837.229,83.839,837.733,84.049,838.248,84.049z"/>
	<path style="fill:#893E8B;" d="M886.297,150.135c-0.991,0-1.798-0.807-1.798-1.798v-2.264c2.015,0.963,3.787,2.356,5.194,4.061
		L886.297,150.135L886.297,150.135z M846.749,128.813h8.938c5.698,0,11.179,2.693,14.661,7.203l3.602,4.665h-27.2V128.813z
		 M842.834,162.542h-8.971c-0.898-4.074-4.535-7.132-8.876-7.132c-4.34,0-7.978,3.058-8.875,7.132h-4.651v-7.015h1.502
		c3.531,0,6.404-2.874,6.404-6.405v-4.525h23.467V162.542L842.834,162.542z M824.987,169.674c-2.854,0-5.175-2.321-5.175-5.175
		s2.321-5.175,5.175-5.175c2.854,0,5.176,2.322,5.176,5.175S827.842,169.674,824.987,169.674z M815.452,145.104v4.018
		c0,1.373-1.116,2.49-2.489,2.49h-1.502v-2.936L815.452,145.104z M835.734,128.813h7.1v11.868h-24.312l0.249-0.595
		C821.648,133.238,828.307,128.813,835.734,128.813z M879.639,169.674c-2.854,0-5.175-2.321-5.175-5.175s2.321-5.175,5.175-5.175
		s5.175,2.322,5.175,5.175S882.492,169.674,879.639,169.674z M878.913,140.705l-5.467-7.081c-4.218-5.464-10.857-8.725-17.76-8.725
		h-19.952c-9.008,0-17.083,5.366-20.573,13.671l-1.046,2.49c-0.051,0.038-0.101,0.078-0.148,0.12l-5.029,4.5h-10.108
		c-1.081,0-1.958,0.876-1.958,1.957c0,1.081,0.877,1.958,1.958,1.958h8.717v5.814h-3.438c-1.081,0-1.957,0.876-1.957,1.958
		s0.876,1.958,1.957,1.958h3.438v5.175c0,1.081,0.876,1.958,1.957,1.958h6.609c0.897,4.074,4.535,7.133,8.875,7.133
		s7.978-3.059,8.876-7.133h22.927c1.081,0,1.957-0.876,1.957-1.958c0-1.081-0.876-1.958-1.957-1.958h-10.041v-17.945h31.22
		c0.892,0,1.765,0.082,2.615,0.23v3.511c0,3.15,2.562,5.712,5.713,5.712h5.738c0.727,1.773,1.13,3.712,1.13,5.744v2.749h-4.651
		c-0.898-4.074-4.535-7.132-8.875-7.132c-5.013,0-9.091,4.078-9.091,9.09s4.078,9.09,9.091,9.09c4.34,0,7.977-3.059,8.875-7.133
		h6.609c1.08,0,1.957-0.876,1.957-1.957v-4.706C897.08,149.571,889.015,141.198,878.913,140.705z"/>
	<path style="fill:#893E8B;" d="M851.023,147.968c-1.081,0-1.957,0.876-1.957,1.958c0,1.081,0.876,1.958,1.957,1.958h3.289
		c1.081,0,1.957-0.877,1.957-1.958c0-1.081-0.876-1.958-1.957-1.958H851.023z"/>
	<path style="fill:#893E8B;" d="M864.62,162.541c-0.517,0-1.02,0.21-1.386,0.574c-0.363,0.364-0.571,0.869-0.571,1.383
		c0,0.515,0.208,1.02,0.571,1.384c0.366,0.364,0.869,0.573,1.386,0.573c0.516,0,1.021-0.209,1.385-0.573
		c0.363-0.364,0.573-0.869,0.573-1.384c0-0.515-0.21-1.02-0.573-1.383C865.641,162.751,865.136,162.541,864.62,162.541z"/>
</g>
<g>
	<circle style="fill:#FFFFFF;stroke:#D8D8D8;stroke-width:5;" cx="432.52" cy="109.566" r="98.1"/>
	<path style="fill:#101C32;" d="M482.949,100.681c-4.501-2.25-12.941-2.276-13.298-2.276c-1.07,0-1.938,0.867-1.938,1.938
		s0.868,1.938,1.938,1.938c2.178,0,8.501,0.335,11.565,1.868c0.278,0.139,0.574,0.205,0.865,0.205c0.711,0,1.396-0.393,1.735-1.071
		C484.295,102.323,483.907,101.159,482.949,100.681z"/>
	<path style="fill:#101C32;" d="M483.174,118.234c-2.054,1.993-4.767,3.046-7.631,2.958c-5.608-0.168-10.17-5.108-10.17-11.01
		v-3.623c0-0.301-0.07-0.598-0.205-0.867l-1.197-2.394c-0.438-0.877-0.67-1.859-0.67-2.84v-0.115c0-4.644,3.778-8.422,8.422-8.422
		h16.71v8.049c0,1.3-0.308,2.603-0.889,3.767l-0.978,1.956c-0.135,0.27-0.205,0.566-0.205,0.867v4.144
		C486.361,113.565,485.229,116.24,483.174,118.234z M475.867,130.753l-4.397-4.397c0.077-0.349,0.12-0.73,0.12-1.151v-0.818
		c1.22,0.4,2.506,0.638,3.837,0.678c0.149,0.004,0.297,0.006,0.446,0.006c1.471,0,2.906-0.222,4.272-0.646v0.78
		c0,0.387,0.048,0.765,0.14,1.129L475.867,130.753z M440.481,132.389c-0.011,0.016-0.036,0.053-0.099,0.059
		c-0.063,0.008-0.094-0.025-0.108-0.039l-4.849-4.849l9.143-6.25l1.939,2.038L440.481,132.389z M432.404,124.93l-10.494-7.173
		v-3.618c2.715,1.468,5.756,2.386,8.989,2.595c0.511,0.033,1.019,0.049,1.525,0.049c3.706,0,7.271-0.886,10.474-2.567v3.54
		L432.404,124.93z M424.533,132.409c-0.013,0.013-0.044,0.045-0.108,0.039c-0.063-0.006-0.088-0.043-0.098-0.06l-6.027-9.04
		l1.939-2.038l9.143,6.25L424.533,132.409z M413.622,93.416v-4.808c0-0.292-0.066-0.58-0.192-0.843
		c-1.247-2.582-1.879-5.322-1.879-8.144v-4.144c0-8.072,6.567-14.638,14.638-14.638h27.07v18.782c0,2.821-0.632,5.561-1.879,8.144
		c-0.127,0.263-0.193,0.551-0.193,0.842v5.518c0,5.248-2.11,10.115-5.94,13.706c-0.478,0.448-0.975,0.868-1.488,1.26
		c-0.011,0.008-0.022,0.016-0.033,0.024c-3.589,2.725-7.984,4.049-12.575,3.752C421.321,112.231,413.622,103.688,413.622,93.416z
		 M394.974,124.854v-2.312c2.254-1.552,4.047-3.735,5.116-6.317c0.232,1.668,0.575,3.25,1.104,4.629
		C400.421,121.796,398.595,123.551,394.974,124.854z M386.821,121.196c-5.787,0-10.494-4.708-10.494-10.494
		c0-1.07-0.868-1.938-1.938-1.938c-0.108,0-0.214,0.011-0.318,0.028c0.006-0.167,0.011-0.333,0.017-0.499
		c0.043-1.333,0.085-2.591,0.162-3.67c0.248-3.482,1.639-6.691,3.918-9.035c2.299-2.366,5.373-3.668,8.653-3.668
		s6.354,1.303,8.653,3.668c2.279,2.344,3.67,5.553,3.918,9.035c0.076,1.079,0.118,2.337,0.162,3.669
		c0.004,0.115,0.008,0.23,0.012,0.346c-2.108-3.249-5.364-5.642-9.572-6.994c-3.887-1.249-7.229-1.171-7.371-1.167
		c-0.508,0.014-0.989,0.227-1.341,0.592l-3.497,3.626c-0.743,0.771-0.721,1.997,0.05,2.74c0.771,0.743,1.998,0.72,2.74-0.05
		l2.91-3.017c2.505,0.123,10.566,1.06,13.701,7.963C396.397,117.418,392.024,121.196,386.821,121.196z M389.768,130.093
		c-1.653,1.57-4.242,1.57-5.895,0l-1.802-1.712c0.304-0.57,0.471-1.216,0.471-1.893v-2.065c1.352,0.422,2.789,0.65,4.278,0.65
		c1.487,0,2.924-0.229,4.278-0.649v2.064c0,0.677,0.167,1.323,0.471,1.893L389.768,130.093z M378.666,124.848
		c-3.625-1.304-5.443-3.043-6.219-3.993c0.529-1.383,0.873-2.967,1.104-4.64c1.069,2.562,2.859,4.75,5.115,6.311V124.848z
		 M492.611,128.271l-8.003-2.287c-0.345-0.099-0.587-0.418-0.587-0.778v-2.671c0.651-0.451,1.272-0.956,1.853-1.52
		c2.814-2.73,4.363-6.393,4.363-10.313v-3.687l0.774-1.547c0.849-1.699,1.298-3.601,1.298-5.5v-9.986
		c0-1.07-0.868-1.938-1.938-1.938h-18.648c-6.781,0-12.298,5.517-12.298,12.298v0.116c0,1.579,0.374,3.161,1.08,4.573l0.993,1.985
		v3.166c0,5.016,2.472,9.517,6.216,12.225l0,2.8c0,0.432,0,0.61-1.6,1.068l-3.905,1.116l-11.296-4.108
		c0.041-0.533-0.139-1.075-0.528-1.483l-3.609-3.792v-6.367c0.381-0.314,0.758-0.637,1.122-0.979
		c4.554-4.269,7.166-10.295,7.166-16.534v-5.084c1.375-2.993,2.072-6.159,2.072-9.42V58.902c0-1.07-0.868-1.938-1.938-1.938h-29.008
		c-10.208,0-18.514,8.305-18.514,18.514v4.144c0,3.261,0.697,6.428,2.072,9.42v4.375c0,7.244,3.221,13.77,8.288,18.073v6.516
		l-3.61,3.792c-0.389,0.409-0.569,0.951-0.528,1.484l-11.923,4.335c-0.864,0.314-1.667,0.739-2.396,1.255l-1.873-0.936
		c5.573-2.426,7.339-5.838,7.424-6.007c0.273-0.545,0.273-1.188,0-1.733c-1.397-2.794-1.566-7.915-1.702-12.03
		c-0.045-1.37-0.088-2.664-0.17-3.816c-0.661-9.295-7.727-16.305-16.437-16.305s-15.776,7.009-16.437,16.305
		c-0.082,1.152-0.125,2.447-0.17,3.817c-0.136,4.115-0.305,9.236-1.702,12.03c-0.273,0.545-0.273,1.188,0,1.733
		c0.085,0.169,1.847,3.574,7.431,6.003l-5.201,2.6c-2.78,1.391-4.507,4.186-4.507,7.293v14.316c0,1.07,0.867,1.938,1.938,1.938
		s1.938-0.868,1.938-1.938v-14.316c0-1.631,0.906-3.097,2.365-3.827l6.476-3.238l2.253,2.141c1.575,1.497,3.595,2.245,5.617,2.245
		c2.021,0,4.042-0.749,5.617-2.245l2.252-2.14l2.111,1.056c-0.994,1.591-1.558,3.457-1.558,5.411v14.915
		c0,1.07,0.867,1.938,1.938,1.938s1.938-0.868,1.938-1.938v-14.915c0-2.66,1.68-5.059,4.18-5.968l12.57-4.571l5.233,7.85
		c0.669,1.003,1.741,1.647,2.941,1.766c0.134,0.013,0.267,0.02,0.4,0.02c1.059,0,2.073-0.417,2.831-1.175l3.192-3.192v20.186
		c0,1.07,0.868,1.938,1.938,1.938c1.07,0,1.938-0.868,1.938-1.938v-20.186l3.193,3.192c0.758,0.758,1.772,1.175,2.831,1.175
		c0.132,0,0.266-0.006,0.399-0.02c1.2-0.119,2.272-0.763,2.941-1.766l5.233-7.85l12.571,4.571c2.5,0.909,4.18,3.307,4.18,5.968
		v14.915c0,1.07,0.868,1.938,1.938,1.938s1.938-0.868,1.938-1.938v-14.915c0-2.694-1.07-5.221-2.866-7.09l0.479-0.137
		c0.483-0.138,1.142-0.327,1.803-0.651l4.948,4.948v17.845c0,1.07,0.868,1.938,1.938,1.938s1.938-0.868,1.938-1.938v-17.845
		l4.913-4.914c0.261,0.133,0.536,0.245,0.825,0.328l8.003,2.286c1.827,0.522,3.103,2.214,3.103,4.114v16.031
		c0,1.07,0.868,1.938,1.938,1.938c1.07,0,1.938-0.868,1.938-1.938v-16.031C498.524,132.49,496.093,129.266,492.611,128.271z"/>
	<path style="fill:#101C32;" d="M488.299,137.772c-1.07,0-1.938,0.868-1.938,1.938v12.432c0,1.07,0.868,1.938,1.938,1.938
		s1.938-0.868,1.938-1.938V139.71C490.236,138.64,489.369,137.772,488.299,137.772z"/>
	<path style="fill:#101C32;" d="M376.46,140.333c-1.07,0-1.938,0.868-1.938,1.938v9.87c0,1.07,0.867,1.938,1.938,1.938
		s1.938-0.868,1.938-1.938v-9.87C378.398,141.202,377.53,140.333,376.46,140.333z"/>
	<path style="fill:#101C32;" d="M448.278,80.324c-7.329-7.329-22.664-5.928-28.917-4.985c-1.97,0.297-3.399,1.964-3.399,3.963v4.464
		c0,1.07,0.868,1.938,1.938,1.938c1.07,0,1.938-0.868,1.938-1.938v-4.465c0-0.066,0.043-0.122,0.102-0.131
		c2.498-0.376,7.454-0.958,12.589-0.615c6.043,0.402,10.42,1.919,13.009,4.509c0.757,0.757,1.984,0.757,2.74,0
		C449.035,82.308,449.035,81.081,448.278,80.324z"/>
	<path style="fill:#101C32;" d="M409.612,141.916c-1.07,0-1.938,0.868-1.938,1.938v8.288c0,1.07,0.868,1.938,1.938,1.938
		c1.07,0,1.938-0.868,1.938-1.938v-8.288C411.55,142.784,410.682,141.916,409.612,141.916z"/>
	<path style="fill:#101C32;" d="M455.196,141.916c-1.07,0-1.938,0.868-1.938,1.938v8.288c0,1.07,0.868,1.938,1.938,1.938
		s1.938-0.868,1.938-1.938v-8.288C457.134,142.784,456.266,141.916,455.196,141.916z"/>
</g>
<g>
	<circle style="fill:#FFFFFF;stroke:#D8D8D8;stroke-width:5;" cx="104.269" cy="267.661" r="90.008"/>
	<path style="fill:#893E8B;" d="M147.849,316.627H60.689l-8.844-58.381h3.542h5.65h86.629h5.65h3.377L147.849,316.627z
		 M140.135,241.297H68.571v-1.883h71.564V241.297z M66.688,245.063h75.331v1.883H66.688V245.063z M64.805,250.713h79.097v3.766
		H64.805V250.713z M59.155,218.698h25.299l4.68,7.799c0.597,0.998,1.691,1.618,2.855,1.618h57.562v26.365h-1.883v-7.533h-1.883
		v-5.65h-1.883v-5.649H64.805v5.649h-1.883v5.65h-1.883v7.533h-1.883V218.698z M160.106,255.314
		c-0.454-0.529-1.117-0.834-1.817-0.834h-4.972v-26.804c0-1.836-1.493-3.33-3.33-3.33H92.236l-4.68-7.798
		c-0.597-0.998-1.691-1.618-2.855-1.618H58.716c-1.834,0.002-3.328,1.495-3.328,3.33v36.219h-5.139c-0.697,0-1.36,0.303-1.814,0.831
		c-0.456,0.527-0.659,1.226-0.554,1.921l9.262,61.132c0.183,1.178,1.177,2.03,2.365,2.03h89.519c1.19,0,2.185-0.853,2.367-2.035
		l9.26-61.12C160.762,256.546,160.562,255.845,160.106,255.314z"/>
	<path style="fill:#893E8B;" d="M102.387,284.612h32.015v18.833h-32.015V284.612z M98.62,307.211h39.548v-26.366H98.62V307.211z"/>
	<path style="fill:#893E8B;" d="M108.037,292.145h7.533c1.042,0,1.883-0.842,1.883-1.883s-0.842-1.883-1.883-1.883h-7.533
		c-1.042,0-1.883,0.842-1.883,1.883S106.995,292.145,108.037,292.145z"/>
	<path style="fill:#893E8B;" d="M123.103,292.145h1.883c1.042,0,1.883-0.842,1.883-1.883s-0.842-1.883-1.883-1.883h-1.883
		c-1.042,0-1.883,0.842-1.883,1.883S122.061,292.145,123.103,292.145z"/>
	<path style="fill:#893E8B;" d="M128.752,295.912h-20.716c-1.042,0-1.883,0.841-1.883,1.883c0,1.041,0.842,1.883,1.883,1.883h20.716
		c1.042,0,1.883-0.842,1.883-1.883C130.636,296.753,129.794,295.912,128.752,295.912z"/>
</g>
<g>
	<circle style="fill:#FFFFFF;stroke:#D8D8D8;stroke-width:5;" cx="166.5" cy="610.5" r="94.825"/>
	<path style="fill:#00D2E5;" d="M165.498,649.444l-4.027,5.318c-0.467,0.617-1.147,1.015-1.913,1.121
		c-0.767,0.105-1.529-0.094-2.146-0.561s-1.015-1.146-1.121-1.913s0.093-1.528,0.561-2.146l3.807-5.026
		c0.001-0.001,0.001-0.002,0.002-0.003l0.219-0.289c0.467-0.616,1.146-1.015,1.913-1.12s1.528,0.093,2.146,0.561
		C166.211,646.351,166.462,648.171,165.498,649.444z M149.689,649.475c-0.617-0.468-1.015-1.147-1.121-1.914
		c-0.106-0.766,0.093-1.527,0.56-2.145c0,0,0,0,0,0l2.793-3.688l1.014-1.339c0.467-0.617,1.147-1.015,1.914-1.121
		c0.767-0.104,1.528,0.094,2.145,0.561c1.273,0.965,1.524,2.784,0.562,4.058l-3.808,5.027c0,0.001,0,0.001,0,0.001
		C152.782,650.188,150.962,650.438,149.689,649.475z M141.965,643.625c-0.617-0.467-1.015-1.146-1.121-1.913
		s0.093-1.528,0.561-2.146l1.483-1.958c0,0,0,0,0-0.001l1.31-1.729c0.569-0.751,1.436-1.146,2.313-1.146
		c0.609,0,1.223,0.191,1.746,0.587c1.273,0.964,1.525,2.784,0.561,4.059l-2.793,3.688
		C145.06,644.338,143.239,644.59,141.965,643.625z M136.388,638.337c-0.766,0.105-1.528-0.094-2.146-0.561
		c-0.617-0.468-1.015-1.147-1.121-1.913c-0.106-0.767,0.093-1.528,0.561-2.146l1.483-1.959c0.467-0.616,1.147-1.015,1.913-1.12
		c0.767-0.105,1.528,0.093,2.146,0.561c0.617,0.467,1.015,1.146,1.121,1.913c0.105,0.766-0.093,1.527-0.561,2.145l-1.483,1.959
		C137.833,637.832,137.154,638.23,136.388,638.337z M167.289,642.281c-1.585-1.2-3.531-1.597-5.347-1.258
		c-0.285-1.721-1.201-3.242-2.597-4.299c-1.446-1.096-3.232-1.562-5.029-1.314c-0.445,0.062-0.878,0.166-1.293,0.309
		c-0.394-1.352-1.208-2.592-2.415-3.505c-1.986-1.505-4.54-1.745-6.692-0.86c-0.429-1.29-1.234-2.421-2.341-3.26
		c-1.446-1.095-3.232-1.561-5.029-1.313c-1.457,0.201-2.779,0.854-3.812,1.863l-7.127-0.474l4.368-35.484l7.827,0.532
		c0.044,0.002,0.089,0.004,0.132,0.004c0.727,0,1.397-0.406,1.732-1.06l2.933-5.724c0.743-1.448,2.421-2.185,3.99-1.751l4.356,1.205
		c1.036,0.285,2.109-0.321,2.396-1.357c0.287-1.037-0.322-2.109-1.358-2.396l-4.355-1.204c-3.338-0.924-6.911,0.643-8.493,3.728
		l-2.349,4.583l-6.335-0.431l0.15-1.219c0.48-3.897-2.3-7.457-6.196-7.937l-15.002-1.846c-1.069-0.131-2.039,0.627-2.17,1.694
		s0.627,2.039,1.694,2.17l15.002,1.847c0.855,0.105,1.618,0.537,2.148,1.217c0.53,0.679,0.764,1.524,0.659,2.379l-5.151,41.85
		c-0.217,1.765-1.831,3.023-3.596,2.808l-15.002-1.848c-1.068-0.13-2.039,0.628-2.17,1.695c-0.131,1.066,0.627,2.039,1.694,2.17
		l15.002,1.847c0.294,0.036,0.586,0.054,0.875,0.054c2.63,0,5.002-1.461,6.232-3.688l5.332,0.354
		c-0.638,1.234-0.882,2.631-0.688,4.034c0.248,1.797,1.181,3.39,2.627,4.484c1.192,0.903,2.616,1.379,4.086,1.379
		c0.312,0,0.627-0.021,0.943-0.065c0.021-0.002,0.04-0.006,0.06-0.01c0.002,0.021,0.004,0.041,0.007,0.061
		c0.248,1.797,1.181,3.39,2.627,4.485c1.224,0.927,2.664,1.374,4.092,1.374c0.335,0,0.669-0.027,1-0.076
		c0.225,1.747,1.121,3.406,2.632,4.551c1.224,0.928,2.663,1.375,4.092,1.375c0.334,0,0.667-0.027,0.997-0.076
		c0.003,0.021,0.005,0.044,0.007,0.065c0.249,1.797,1.181,3.39,2.627,4.484c1.193,0.903,2.616,1.379,4.086,1.379
		c0.313,0,0.628-0.021,0.943-0.065c1.797-0.248,3.39-1.181,4.485-2.627l4.027-5.318
		C170.863,648.811,170.274,644.542,167.289,642.281z"/>
	<path style="fill:#00D2E5;" d="M233.708,631.625c-0.131-1.067-1.102-1.825-2.17-1.695l-15.002,1.848
		c-1.768,0.217-3.378-1.043-3.596-2.808l-0.153-1.249l-0.036-0.289l-4.962-40.312c-0.105-0.854,0.129-1.699,0.659-2.379
		c0.53-0.68,1.293-1.111,2.148-1.217l15.002-1.847c1.067-0.131,1.826-1.103,1.694-2.17s-1.102-1.825-2.17-1.694l-15.002,1.847
		c-3.667,0.451-6.343,3.63-6.247,7.25l-3.783,0.466l-11.715-6.593c-1.659-0.935-3.539-1.336-5.438-1.161
		c-0.004,0-0.008,0.001-0.012,0.002l-3.526,0.325c-1.071,0.1-1.859,1.048-1.76,2.119c0.099,1.07,1.046,1.856,2.118,1.759
		l3.536-0.327c1.106-0.103,2.203,0.132,3.171,0.677l12.146,6.835c0.38,0.251,0.843,0.366,1.311,0.309l4.394-0.541l3.223,26.181
		l1.115,9.054l-7.009,0.005c-0.467,0.001-0.918,0.169-1.271,0.474l-0.542,0.423l-17.596-15.166
		c4.021-1.155,7.854-3.952,11.438-8.354c0.679-0.833,0.554-2.06-0.28-2.739c-0.833-0.679-2.061-0.553-2.739,0.28
		c-4.006,4.92-8.218,7.452-12.519,7.526c-6.266,0.118-10.87-5.078-10.913-5.127c-0.383-0.442-0.944-0.688-1.529-0.673
		c-0.585,0.017-1.132,0.296-1.488,0.76l-5.23,6.807c-2.756,3.587-7.45,4.924-11.682,3.325l-0.559-0.212
		c-0.49-0.185-0.69-0.568-0.766-0.78s-0.163-0.636,0.101-1.089l13.651-23.496c0.883-1.521,2.455-2.524,4.206-2.687l8.083-0.747
		c1.071-0.099,1.858-1.048,1.759-2.118s-1.047-1.857-2.118-1.76l-8.083,0.748c-3.002,0.277-5.699,2-7.214,4.607L142.7,609.518
		c-0.769,1.323-0.916,2.908-0.403,4.35c0.513,1.442,1.628,2.578,3.059,3.119l0.558,0.211c1.647,0.622,3.344,0.923,5.019,0.923
		c4.271-0.001,8.392-1.956,11.128-5.518l3.902-5.078c2.091,1.802,5.993,4.471,10.972,4.799l25.428,21.915
		c0.457,0.395,0.734,0.942,0.778,1.544c0.044,0.603-0.147,1.186-0.541,1.643l-0.991,1.148c-1.245,1.442-3.433,1.603-4.877,0.358
		c-0.081-0.07-0.167-0.13-0.255-0.184l-6.601-5.691c-0.814-0.702-2.044-0.611-2.746,0.203c-0.703,0.814-0.611,2.044,0.203,2.746
		l5.364,4.625l-2.447,2.84c-0.751,0.872-1.883,1.312-3.025,1.179c-0.684-0.081-1.324-0.363-1.851-0.818
		c-0.009-0.008-0.02-0.015-0.029-0.022l-6.133-5.288c-0.814-0.702-2.044-0.611-2.746,0.203s-0.611,2.044,0.203,2.746l4.687,4.042
		l-2.461,2.858c-0.752,0.872-1.886,1.312-3.028,1.178c-1.068-0.126-2.036,0.639-2.161,1.707c-0.125,1.067,0.639,2.035,1.707,2.161
		c0.289,0.033,0.576,0.05,0.863,0.05c2.126,0,4.161-0.921,5.57-2.554l2.631-3.057c0.719,0.343,1.492,0.567,2.293,0.661
		c2.43,0.286,4.832-0.65,6.43-2.503l2.636-3.06c2.915,1.383,6.516,0.72,8.722-1.837l0.992-1.15c1.073-1.246,1.596-2.834,1.475-4.473
		c-0.122-1.64-0.875-3.133-2.12-4.205l-1.598-1.377l5.842-0.005c0.638,3.364,3.599,5.789,6.987,5.789
		c0.289,0,0.581-0.019,0.875-0.054l15.002-1.848C233.081,633.664,233.839,632.692,233.708,631.625z"/>
	<path style="fill:#00D2E5;" d="M221.262,625.097c-1.001,0-1.817-0.815-1.817-1.817s0.815-1.816,1.817-1.816
		c1.002,0,1.817,0.814,1.817,1.816S222.264,625.097,221.262,625.097z M221.262,617.568c-3.149,0-5.711,2.562-5.711,5.711
		c0,3.149,2.562,5.711,5.711,5.711c3.149,0,5.711-2.562,5.711-5.711C226.973,620.131,224.411,617.568,221.262,617.568z"/>
	<path style="fill:#00D2E5;" d="M111.236,623.279c0-1.002,0.815-1.816,1.817-1.816s1.817,0.814,1.817,1.816
		s-0.815,1.817-1.817,1.817S111.236,624.281,111.236,623.279z M118.764,623.279c0-3.148-2.562-5.711-5.711-5.711
		s-5.711,2.562-5.711,5.711c0,3.149,2.562,5.711,5.711,5.711S118.764,626.429,118.764,623.279z"/>
</g>
<g>
	<circle style="fill:#FFFFFF;stroke:#D8D8D8;stroke-width:5;" cx="1126.414" cy="320.414" r="107.914"/>
	<rect x="1165.807" y="374.534" style="fill:#00D2E5;" width="3.899" height="4.113"/>
	<rect x="1157.581" y="374.534" style="fill:#00D2E5;" width="3.899" height="4.113"/>
	<rect x="1149.356" y="374.534" style="fill:#00D2E5;" width="3.899" height="4.113"/>
	<path style="fill:#00D2E5;" d="M1171.762,291.746l15.135,10.746l-15.135,9.763V291.746z M1126.633,259.723l11.26,7.996h-22.521
		L1126.633,259.723z M1171.762,286.963v-19.244h-27.133l-17.996-12.779l-17.997,12.779h-10.791v3.899h70.018v43.152l-10.42,6.721
		l2.114,3.277l28.868-18.622v73.962l-35.739-35.739l-2.758,2.758l35.739,35.738h-73.429v3.9h80.086v-85.205L1171.762,286.963z"/>
	<path style="fill:#00D2E5;" d="M1081.502,312.253l-15.135-9.762l15.135-10.747V312.253z M1103.337,347.127l-2.758-2.758
		l-35.739,35.739v-73.962l61.793,39.866l27.787-17.93l-2.114-3.277l-25.674,16.565l-41.229-26.603v-43.15h6.274v-3.899h-10.175
		v19.243l-20.562,14.598v85.205h45.13v-3.899h-38.473L1103.337,347.127z"/>
	<path style="fill:#00D2E5;" d="M1119.709,304.571l6.923,6.923l6.923-6.923c3.327,2.235,5.521,6.033,5.521,10.334
		c0,0.017-0.019,1.75-0.647,3.429c-0.957,2.551-2.497,2.846-3.572,2.846h-16.449c-1.061,0-2.581-0.286-3.542-2.77
		c-0.658-1.701-0.677-3.493-0.677-3.504C1114.188,310.604,1116.382,306.807,1119.709,304.571z M1120.356,292.287
		c0-3.459,2.815-6.275,6.276-6.275c3.46,0,6.274,2.815,6.274,6.275c0,3.461-2.814,6.275-6.274,6.275
		C1123.172,298.562,1120.356,295.747,1120.356,292.287z M1126.633,302.462c1.077,0,2.122,0.138,3.121,0.396l-3.121,3.12l-3.121-3.12
		C1124.509,302.6,1125.555,302.462,1126.633,302.462z M1110.289,314.905c0,3.519,1.697,10.175,8.118,10.175h16.449
		c6.422,0,8.119-6.656,8.119-10.175c0-6.646-3.989-12.373-9.696-14.926c2.158-1.866,3.527-4.622,3.527-7.693
		c0-5.61-4.564-10.175-10.174-10.175c-5.611,0-10.176,4.565-10.176,10.175c0,3.072,1.369,5.827,3.527,7.694
		C1114.278,302.532,1110.289,308.26,1110.289,314.905z"/>
	<rect x="1159.637" y="275.838" style="fill:#00D2E5;" width="3.9" height="4.111"/>
	<rect x="1151.413" y="275.838" style="fill:#00D2E5;" width="3.899" height="4.111"/>
	<polygon style="fill:#00D2E5;" points="1093.627,294.343 1089.727,294.343 1089.727,275.944 1099.902,275.944 1099.902,279.844 
		1093.627,279.844 	"/>
</g>
</svg>
